<?xml version="1.0" encoding="UTF-8"?>
<svg xmlns="http://www.w3.org/2000/svg" viewBox="0 0 680 548" width="680" height="548">
  <rect width="100%" height="100%" fill="white"/>
  <text x="340" y="24" text-anchor="middle" font-family="system-ui,sans-serif" font-size="18" font-weight="600" fill="#1e293b">Tool taxonomy (152 tools)</text>
  <rect x="24" y="64" width="200" height="36" rx="6" fill="#2563eb" fill-opacity="0.15" stroke="#2563eb" stroke-width="1.5"/>
  <text x="124" y="87" text-anchor="middle" font-family="system-ui,sans-serif" font-size="14" font-weight="600" fill="#2563eb">Smart Car</text>
  <rect x="24" y="108" width="180" height="28" rx="4" fill="#f1f5f9" stroke="#e2e8f0"/>
  <text x="34" y="126" font-family="system-ui,sans-serif" font-size="12" fill="#1e293b">Body Control</text>
  <text x="194" y="126" text-anchor="end" font-family="system-ui,sans-serif" font-size="11" fill="#64748b">8</text>
  <rect x="24" y="140" width="180" height="28" rx="4" fill="#f1f5f9" stroke="#e2e8f0"/>
  <text x="34" y="158" font-family="system-ui,sans-serif" font-size="12" fill="#1e293b">Charging Energy</text>
  <text x="194" y="158" text-anchor="end" font-family="system-ui,sans-serif" font-size="11" fill="#64748b">10</text>
  <rect x="24" y="172" width="180" height="28" rx="4" fill="#f1f5f9" stroke="#e2e8f0"/>
  <text x="34" y="190" font-family="system-ui,sans-serif" font-size="12" fill="#1e293b">Climate Environment</text>
  <text x="194" y="190" text-anchor="end" font-family="system-ui,sans-serif" font-size="11" fill="#64748b">13</text>
  <rect x="24" y="204" width="180" height="28" rx="4" fill="#f1f5f9" stroke="#e2e8f0"/>
  <text x="34" y="222" font-family="system-ui,sans-serif" font-size="12" fill="#1e293b">Core Control</text>
  <text x="194" y="222" text-anchor="end" font-family="system-ui,sans-serif" font-size="11" fill="#64748b">4</text>
  <rect x="24" y="236" width="180" height="28" rx="4" fill="#f1f5f9" stroke="#e2e8f0"/>
  <text x="34" y="254" font-family="system-ui,sans-serif" font-size="12" fill="#1e293b">Diagnostics</text>
  <text x="194" y="254" text-anchor="end" font-family="system-ui,sans-serif" font-size="11" fill="#64748b">5</text>
  <rect x="24" y="268" width="180" height="28" rx="4" fill="#f1f5f9" stroke="#e2e8f0"/>
  <text x="34" y="286" font-family="system-ui,sans-serif" font-size="12" fill="#1e293b">Driving Dynamics</text>
  <text x="194" y="286" text-anchor="end" font-family="system-ui,sans-serif" font-size="11" fill="#64748b">8</text>
  <rect x="24" y="300" width="180" height="28" rx="4" fill="#f1f5f9" stroke="#e2e8f0"/>
  <text x="34" y="318" font-family="system-ui,sans-serif" font-size="12" fill="#1e293b">Fine Grained</text>
  <text x="194" y="318" text-anchor="end" font-family="system-ui,sans-serif" font-size="11" fill="#64748b">1</text>
  <rect x="24" y="332" width="180" height="28" rx="4" fill="#f1f5f9" stroke="#e2e8f0"/>
  <text x="34" y="350" font-family="system-ui,sans-serif" font-size="12" fill="#1e293b">Maintenance</text>
  <text x="194" y="350" text-anchor="end" font-family="system-ui,sans-serif" font-size="11" fill="#64748b">6</text>
  <rect x="24" y="364" width="180" height="28" rx="4" fill="#f1f5f9" stroke="#e2e8f0"/>
  <text x="34" y="382" font-family="system-ui,sans-serif" font-size="12" fill="#1e293b">Media Cabin</text>
  <text x="194" y="382" text-anchor="end" font-family="system-ui,sans-serif" font-size="11" fill="#64748b">8</text>
  <rect x="24" y="396" width="180" height="28" rx="4" fill="#f1f5f9" stroke="#e2e8f0"/>
  <text x="34" y="414" font-family="system-ui,sans-serif" font-size="12" fill="#1e293b">Navigation</text>
  <text x="194" y="414" text-anchor="end" font-family="system-ui,sans-serif" font-size="11" fill="#64748b">7</text>
  <rect x="24" y="428" width="180" height="28" rx="4" fill="#f1f5f9" stroke="#e2e8f0"/>
  <text x="34" y="446" font-family="system-ui,sans-serif" font-size="12" fill="#1e293b">Novelty</text>
  <text x="194" y="446" text-anchor="end" font-family="system-ui,sans-serif" font-size="11" fill="#64748b">3</text>
  <rect x="24" y="460" width="180" height="28" rx="4" fill="#f1f5f9" stroke="#e2e8f0"/>
  <text x="34" y="478" font-family="system-ui,sans-serif" font-size="12" fill="#1e293b">Security</text>
  <text x="194" y="478" text-anchor="end" font-family="system-ui,sans-serif" font-size="11" fill="#64748b">6</text>
  <rect x="24" y="492" width="180" height="28" rx="4" fill="#f1f5f9" stroke="#e2e8f0"/>
  <text x="34" y="510" font-family="system-ui,sans-serif" font-size="12" fill="#1e293b">Status</text>
  <text x="194" y="510" text-anchor="end" font-family="system-ui,sans-serif" font-size="11" fill="#64748b">7</text>
  <rect x="436" y="64" width="200" height="36" rx="6" fill="#2563eb" fill-opacity="0.15" stroke="#2563eb" stroke-width="1.5"/>
  <text x="536" y="87" text-anchor="middle" font-family="system-ui,sans-serif" font-size="14" font-weight="600" fill="#2563eb">Smart Home</text>
  <rect x="436" y="108" width="180" height="28" rx="4" fill="#f1f5f9" stroke="#e2e8f0"/>
  <text x="446" y="126" font-family="system-ui,sans-serif" font-size="12" fill="#1e293b">Appliances</text>
  <text x="606" y="126" text-anchor="end" font-family="system-ui,sans-serif" font-size="11" fill="#64748b">4</text>
  <rect x="436" y="140" width="180" height="28" rx="4" fill="#f1f5f9" stroke="#e2e8f0"/>
  <text x="446" y="158" font-family="system-ui,sans-serif" font-size="12" fill="#1e293b">Automation</text>
  <text x="606" y="158" text-anchor="end" font-family="system-ui,sans-serif" font-size="11" fill="#64748b">4</text>
  <rect x="436" y="172" width="180" height="28" rx="4" fill="#f1f5f9" stroke="#e2e8f0"/>
  <text x="446" y="190" font-family="system-ui,sans-serif" font-size="12" fill="#1e293b">Climate</text>
  <text x="606" y="190" text-anchor="end" font-family="system-ui,sans-serif" font-size="11" fill="#64748b">6</text>
  <rect x="436" y="204" width="180" height="28" rx="4" fill="#f1f5f9" stroke="#e2e8f0"/>
  <text x="446" y="222" font-family="system-ui,sans-serif" font-size="12" fill="#1e293b">Core Control</text>
  <text x="606" y="222" text-anchor="end" font-family="system-ui,sans-serif" font-size="11" fill="#64748b">4</text>
  <rect x="436" y="236" width="180" height="28" rx="4" fill="#f1f5f9" stroke="#e2e8f0"/>
  <text x="446" y="254" font-family="system-ui,sans-serif" font-size="12" fill="#1e293b">Device Finding</text>
  <text x="606" y="254" text-anchor="end" font-family="system-ui,sans-serif" font-size="11" fill="#64748b">1</text>
  <rect x="436" y="268" width="180" height="28" rx="4" fill="#f1f5f9" stroke="#e2e8f0"/>
  <text x="446" y="286" font-family="system-ui,sans-serif" font-size="12" fill="#1e293b">Diagnostics</text>
  <text x="606" y="286" text-anchor="end" font-family="system-ui,sans-serif" font-size="11" fill="#64748b">4</text>
  <rect x="436" y="300" width="180" height="28" rx="4" fill="#f1f5f9" stroke="#e2e8f0"/>
  <text x="446" y="318" font-family="system-ui,sans-serif" font-size="12" fill="#1e293b">Energy</text>
  <text x="606" y="318" text-anchor="end" font-family="system-ui,sans-serif" font-size="11" fill="#64748b">3</text>
  <rect x="436" y="332" width="180" height="28" rx="4" fill="#f1f5f9" stroke="#e2e8f0"/>
  <text x="446" y="350" font-family="system-ui,sans-serif" font-size="12" fill="#1e293b">Lighting</text>
  <text x="606" y="350" text-anchor="end" font-family="system-ui,sans-serif" font-size="11" fill="#64748b">7</text>
  <rect x="436" y="364" width="180" height="28" rx="4" fill="#f1f5f9" stroke="#e2e8f0"/>
  <text x="446" y="382" font-family="system-ui,sans-serif" font-size="12" fill="#1e293b">Maintenance</text>
  <text x="606" y="382" text-anchor="end" font-family="system-ui,sans-serif" font-size="11" fill="#64748b">5</text>
  <rect x="436" y="396" width="180" height="28" rx="4" fill="#f1f5f9" stroke="#e2e8f0"/>
  <text x="446" y="414" font-family="system-ui,sans-serif" font-size="12" fill="#1e293b">Media</text>
  <text x="606" y="414" text-anchor="end" font-family="system-ui,sans-serif" font-size="11" fill="#64748b">5</text>
  <rect x="436" y="428" width="180" height="28" rx="4" fill="#f1f5f9" stroke="#e2e8f0"/>
  <text x="446" y="446" font-family="system-ui,sans-serif" font-size="12" fill="#1e293b">Security</text>
  <text x="606" y="446" text-anchor="end" font-family="system-ui,sans-serif" font-size="11" fill="#64748b">5</text>
  <rect x="436" y="460" width="180" height="28" rx="4" fill="#f1f5f9" stroke="#e2e8f0"/>
  <text x="446" y="478" font-family="system-ui,sans-serif" font-size="12" fill="#1e293b">Status</text>
  <text x="606" y="478" text-anchor="end" font-family="system-ui,sans-serif" font-size="11" fill="#64748b">5</text>
  <rect x="848" y="64" width="200" height="36" rx="6" fill="#2563eb" fill-opacity="0.15" stroke="#2563eb" stroke-width="1.5"/>
  <text x="948" y="87" text-anchor="middle" font-family="system-ui,sans-serif" font-size="14" font-weight="600" fill="#2563eb">Wearables</text>
  <rect x="848" y="108" width="180" height="28" rx="4" fill="#f1f5f9" stroke="#e2e8f0"/>
  <text x="858" y="126" font-family="system-ui,sans-serif" font-size="12" fill="#1e293b">Device State</text>
  <text x="1018" y="126" text-anchor="end" font-family="system-ui,sans-serif" font-size="11" fill="#64748b">4</text>
  <rect x="848" y="140" width="180" height="28" rx="4" fill="#f1f5f9" stroke="#e2e8f0"/>
  <text x="858" y="158" font-family="system-ui,sans-serif" font-size="12" fill="#1e293b">Health Activity</text>
  <text x="1018" y="158" text-anchor="end" font-family="system-ui,sans-serif" font-size="11" fill="#64748b">6</text>
  <rect x="848" y="172" width="180" height="28" rx="4" fill="#f1f5f9" stroke="#e2e8f0"/>
  <text x="858" y="190" font-family="system-ui,sans-serif" font-size="12" fill="#1e293b">System Connectivity</text>
  <text x="1018" y="190" text-anchor="end" font-family="system-ui,sans-serif" font-size="11" fill="#64748b">3</text>
</svg>